<svg width="24" height="24" viewBox="0 0 24 24" fill="none" xmlns="http://www.w3.org/2000/svg">
<g id="Image">
<g id="Image 2">
<path id="Stroke 1" fill-rule="evenodd" clip-rule="evenodd" d="M15.7371 3.95654H8.21667C5.59861 3.95654 3.95667 5.81144 3.95667 8.43646V15.5171C3.95667 18.1421 5.59165 19.997 8.21667 19.997H15.7328C18.3621 19.997 19.9962 18.1421 19.9962 15.5171V8.43646C19.9997 5.81144 18.3647 3.95654 15.7371 3.95654Z" stroke="#040332" stroke-linecap="round" stroke-linejoin="round"/>
<path id="Stroke 3" fill-rule="evenodd" clip-rule="evenodd" d="M10.8699 9.20247C10.8699 10.0891 10.1519 10.807 9.26533 10.807C8.3796 10.807 7.66077 10.0891 7.66077 9.20247C7.66077 8.31587 8.3796 7.5979 9.26533 7.5979C10.1511 7.59877 10.869 8.31674 10.8699 9.20247Z" stroke="#040332" stroke-linecap="round" stroke-linejoin="round"/>
<path id="Stroke 5" d="M20 14.5619C19.1977 13.7361 17.6549 12.0681 15.9773 12.0681C14.2988 12.0681 13.3314 15.7475 11.7173 15.7475C10.1032 15.7475 8.6368 14.0838 7.34341 15.1503C6.05002 16.216 4.82617 18.3951 4.82617 18.3951" stroke="#040332" stroke-linecap="round" stroke-linejoin="round"/>
</g>
</g>
</svg>
