<svg width="24" height="24" viewBox="0 0 24 24" fill="none" xmlns="http://www.w3.org/2000/svg">
<g id="social-linkedin">
<path id="Vector" d="M9.22575 17H7.1486V10.3333H9.22575V17ZM9.433 8.20932C9.433 7.5418 8.88821 7 8.21708 7C7.5434 7 7 7.5418 7 8.20932C7 8.87707 7.5434 9.41888 8.21708 9.41888C8.88821 9.41888 9.433 8.87707 9.433 8.20932ZM17 13.3323C17 11.5427 16.6197 10.2153 14.5167 10.2153C13.5062 10.2153 12.8278 10.7177 12.5509 11.2402H12.549V10.3333H10.5312V17H12.549V13.6899C12.549 12.8231 12.7709 11.9833 13.8518 11.9833C14.918 11.9833 14.9525 12.9746 14.9525 13.745V17H17V13.3323Z" fill="#040332"/>
<rect id="Rectangle 377" x="3" y="3" width="18" height="18" rx="2" stroke="#040332" stroke-linecap="round"/>
</g>
</svg>
