<svg width="24" height="24" viewBox="0 0 24 24" fill="none" xmlns="http://www.w3.org/2000/svg">
<g id="User">
<path id="Union" fill-rule="evenodd" clip-rule="evenodd" d="M8.5 8C8.5 6.067 10.067 4.5 12 4.5C13.933 4.5 15.5 6.067 15.5 8C15.5 9.933 13.933 11.5 12 11.5C10.067 11.5 8.5 9.933 8.5 8ZM12 3.5C9.51472 3.5 7.5 5.51472 7.5 8C7.5 10.4853 9.51472 12.5 12 12.5C14.4853 12.5 16.5 10.4853 16.5 8C16.5 5.51472 14.4853 3.5 12 3.5ZM5.5 18C5.5 16.067 7.067 14.5 9 14.5H15C16.933 14.5 18.5 16.067 18.5 18C18.5 18.8284 17.8284 19.5 17 19.5H7C6.17157 19.5 5.5 18.8284 5.5 18ZM9 13.5C6.51472 13.5 4.5 15.5147 4.5 18C4.5 19.3807 5.61929 20.5 7 20.5H17C18.3807 20.5 19.5 19.3807 19.5 18C19.5 15.5147 17.4853 13.5 15 13.5H9Z" fill="#040332"/>
</g>
</svg>
